<svg width="215" height="60" viewBox="0 0 215 60" fill="none" xmlns="http://www.w3.org/2000/svg">
<g clip-path="url(#clip0_155_169)">
<path d="M45.4069 17.5498C45.4069 17.5498 43.5866 18.2998 41.9685 19.7498C41.1089 20.5498 40.3505 21.2998 40.8055 23.2498C41.4123 25.6998 40.8055 28.5998 39.3897 30.8998C36.1536 36.0498 31.9062 37.7498 25.7373 41.3498C24.7766 41.8998 23.6642 42.4998 22.8046 43.1498C21.136 44.3498 19.3662 45.5498 18.4561 46.6998C18.4561 46.6998 18.5066 46.6998 18.5572 46.6498C19.3157 46.3498 24.271 44.5998 26.243 43.8998C28.5689 42.9498 30.996 41.9998 32.6647 41.3498C39.9965 38.4998 46.2159 34.2498 48.0363 27.7498C49.7554 21.4498 45.4069 17.5498 45.4069 17.5498Z" fill="white"/>
<path d="M49.4015 10.2002C48.7947 10.6502 48.8958 11.4002 49.3509 11.7002C50.0083 12.2002 51.6769 11.9502 51.778 11.0502C51.8286 10.1502 50.1094 9.65016 49.4015 10.2002Z" fill="white"/>
<path d="M47.6317 3.95018C44.2944 3.50018 39.3391 4.45018 33.8276 7.45018C26.2935 3.65018 14.2591 -0.349818 0.505617 0.0501818C0.404488 0.0501818 0.353924 0.100182 0.353924 0.200182C0.101102 1.45018 -1.76978 12.1502 6.47222 20.7002C8.59593 22.9002 11.1241 24.8502 13.9558 26.2002C8.69706 33.9502 3.89343 43.9002 0.404488 56.6002C0.303359 57.0502 3.59005 59.4002 7.02843 59.4502C8.29254 59.4502 9.9106 59.1002 10.0623 57.8002C10.7196 53.3002 12.5905 39.9002 19.0628 28.0502C21.3887 28.5502 23.8158 28.7002 26.3946 28.4002C27.6587 28.2502 28.8217 28.0002 29.3273 27.5002C29.1251 27.5002 28.9734 27.5002 28.8217 27.5002C26.5969 27.8002 23.3102 27.6002 19.8718 26.5002C22.1472 22.6002 24.9788 18.9002 28.4172 15.8502C29.4285 14.9502 30.3892 14.1502 31.2994 13.4002C31.5522 13.5502 31.8556 13.7502 32.1084 13.9002C34.2321 15.2502 36.912 15.1002 39.238 13.1502L40.7549 11.6002C39.9459 10.9502 38.7829 10.1502 37.3165 9.30018C47.126 3.75018 53.5477 6.25018 56.3288 11.8002C56.4299 11.9502 56.3288 12.2002 56.1265 12.2502C55.368 12.5502 54.3062 13.0002 53.4972 13.7002C53.2443 13.9002 53.1432 14.5502 53.75 14.6502C54.6601 14.7002 55.4692 14.8502 56.1265 15.0502C57.7951 15.4002 58.6547 15.9502 59.0087 16.2002C59.0087 16.2002 59.0087 16.2002 59.0087 16.1502C58.8064 14.5002 57.2389 5.30018 47.6317 3.95018ZM15.2199 24.4502C13.3995 23.3502 11.6298 21.9502 10.0623 20.2002C3.13497 12.3002 5.61263 5.20018 5.91601 4.20018C5.91601 4.15018 6.01714 4.10018 6.06771 4.10018C7.07899 4.05018 14.8659 4.15018 27.8104 11.4002C23.6136 14.5502 19.265 18.8502 15.2199 24.4502Z" fill="white"/>
<path d="M104.314 54.1502H102.696V53.4502H106.742V54.1502H105.124V58.1002H104.314V54.1502Z" fill="white"/>
<path d="M111.545 56.6501C111.495 56.8501 111.444 57.0501 111.343 57.2501C111.242 57.4501 111.09 57.6001 110.938 57.7501C110.787 57.9001 110.534 58.0501 110.332 58.1001C110.079 58.2001 109.826 58.2501 109.523 58.2501C109.219 58.2501 108.916 58.2001 108.663 58.1001C108.41 58.0001 108.157 57.8501 107.955 57.6501C107.753 57.4501 107.601 57.2001 107.5 56.8501C107.399 56.5501 107.348 56.1501 107.348 55.7501C107.348 55.4501 107.399 55.2001 107.449 55.0001C107.5 54.7501 107.601 54.5501 107.702 54.4001C107.803 54.2001 107.955 54.0501 108.056 53.9501C108.208 53.8001 108.36 53.7001 108.511 53.6001C108.663 53.5001 108.815 53.4501 109.017 53.4001C109.169 53.3501 109.32 53.3501 109.472 53.3501C109.775 53.3501 110.079 53.4001 110.332 53.5001C110.584 53.6001 110.837 53.7501 111.039 53.9501C111.242 54.1501 111.393 54.4001 111.495 54.7001C111.596 55.0001 111.646 55.3501 111.646 55.7501V56.1501H108.208C108.208 56.4001 108.258 56.6001 108.309 56.7501C108.36 56.9501 108.461 57.1001 108.562 57.2001C108.663 57.3501 108.815 57.4501 108.966 57.5001C109.118 57.5501 109.32 57.6001 109.523 57.6001C109.725 57.6001 109.927 57.5501 110.028 57.5001C110.18 57.4501 110.281 57.3501 110.382 57.3001C110.483 57.2001 110.534 57.1001 110.635 57.0001C110.686 56.9001 110.736 56.8001 110.787 56.6501H111.545ZM110.787 55.4501C110.787 55.2001 110.736 55.0001 110.686 54.8501C110.635 54.6501 110.534 54.5501 110.433 54.4001C110.332 54.3001 110.18 54.2001 110.028 54.1501C109.876 54.1001 109.674 54.0501 109.523 54.0501C109.32 54.0501 109.169 54.1001 109.017 54.1501C108.865 54.2001 108.714 54.3001 108.612 54.4501C108.511 54.6001 108.41 54.7001 108.309 54.9001C108.258 55.0501 108.208 55.2501 108.157 55.4501H110.787Z" fill="white"/>
<path d="M115.54 54.1502H113.365V58.1002H112.556V53.4502H116.349V58.1002H115.54V54.1502Z" fill="white"/>
<path d="M120.697 54.1502H118.877L118.826 55.2502C118.826 55.8002 118.776 56.3002 118.675 56.6502C118.624 57.0502 118.523 57.3502 118.371 57.5502C118.27 57.8002 118.119 57.9502 117.916 58.0502C117.765 58.1502 117.562 58.2002 117.31 58.2002C117.208 58.2002 117.158 58.2002 117.107 58.1502C117.057 58.1502 117.006 58.1002 116.956 58.0502V57.3502C117.057 57.4002 117.158 57.4002 117.259 57.4002C117.31 57.4002 117.36 57.4002 117.461 57.3502C117.512 57.3502 117.562 57.3002 117.613 57.2502C117.663 57.2002 117.714 57.1002 117.765 57.0002C117.815 56.9002 117.866 56.7502 117.866 56.6002C117.916 56.4502 117.916 56.2002 117.967 56.0002C117.967 55.7502 118.017 55.4502 118.017 55.1502L118.068 53.4502H121.456V58.1002H120.647V54.1502H120.697Z" fill="white"/>
<path d="M126.765 55.8001C126.765 56.2001 126.714 56.5501 126.613 56.8501C126.512 57.1501 126.361 57.4001 126.158 57.6501C125.956 57.8501 125.754 58.0501 125.45 58.1501C125.198 58.2501 124.894 58.3001 124.54 58.3001C124.186 58.3001 123.883 58.2501 123.63 58.1501C123.377 58.0501 123.124 57.8501 122.922 57.6501C122.72 57.4501 122.568 57.2001 122.467 56.8501C122.366 56.5501 122.315 56.2001 122.315 55.8001C122.315 55.4001 122.366 55.1001 122.467 54.8001C122.568 54.5001 122.72 54.2501 122.922 54.0001C123.124 53.8001 123.327 53.6001 123.63 53.5001C123.883 53.4001 124.186 53.3501 124.54 53.3501C124.894 53.3501 125.198 53.4001 125.45 53.5001C125.703 53.6001 125.956 53.8001 126.158 54.0001C126.361 54.2001 126.512 54.4501 126.613 54.8001C126.765 55.0501 126.765 55.4001 126.765 55.8001ZM126.007 55.8001C126.007 55.5501 125.956 55.3001 125.905 55.1001C125.855 54.9001 125.754 54.7001 125.653 54.5501C125.552 54.4001 125.4 54.2501 125.198 54.2001C125.046 54.1001 124.844 54.0501 124.591 54.0501C124.389 54.0501 124.186 54.1001 123.984 54.2001C123.832 54.3001 123.681 54.4001 123.529 54.5501C123.428 54.7001 123.327 54.9001 123.276 55.1001C123.226 55.3001 123.175 55.5501 123.175 55.8001C123.175 56.0501 123.226 56.3001 123.276 56.5001C123.327 56.7001 123.428 56.9001 123.529 57.0501C123.63 57.2001 123.782 57.3501 123.984 57.4001C124.136 57.5001 124.338 57.5501 124.591 57.5501C124.793 57.5501 124.995 57.5001 125.198 57.4001C125.349 57.3001 125.501 57.2001 125.653 57.0501C125.754 56.9001 125.855 56.7001 125.905 56.5001C125.956 56.3001 126.007 56.0501 126.007 55.8001Z" fill="white"/>
<path d="M130.153 53.4501H130.962V54.1001C131.012 54.0001 131.063 53.9001 131.164 53.8001C131.265 53.7001 131.316 53.6001 131.468 53.5501C131.569 53.5001 131.72 53.4001 131.872 53.4001C132.024 53.3501 132.175 53.3501 132.378 53.3501C132.63 53.3501 132.883 53.4001 133.086 53.5001C133.338 53.6001 133.541 53.7501 133.692 53.9501C133.895 54.1501 133.996 54.4001 134.097 54.6501C134.198 54.9501 134.249 55.2501 134.249 55.6501C134.249 56.1501 134.198 56.5501 134.097 56.8501C133.996 57.2001 133.844 57.4501 133.692 57.6501C133.49 57.8501 133.288 58.0001 133.035 58.1001C132.782 58.2001 132.479 58.2501 132.175 58.2501C132.024 58.2501 131.872 58.2501 131.72 58.2001C131.569 58.1501 131.468 58.1001 131.366 58.0501C131.265 58.0001 131.164 57.9001 131.114 57.8501C131.063 57.7501 130.962 57.7001 130.962 57.6001V59.9501H130.153V53.4501ZM130.962 55.8001C130.962 56.0501 130.962 56.3001 131.012 56.5001C131.063 56.7001 131.164 56.9001 131.265 57.0501C131.366 57.2001 131.518 57.3501 131.67 57.4001C131.821 57.5001 132.024 57.5501 132.226 57.5501C132.428 57.5501 132.63 57.5001 132.782 57.4001C132.934 57.3001 133.086 57.2001 133.187 57.0501C133.288 56.9001 133.389 56.7001 133.44 56.5001C133.49 56.3001 133.49 56.0501 133.49 55.8001C133.49 55.5501 133.49 55.3001 133.44 55.1001C133.389 54.9001 133.288 54.7001 133.187 54.5501C133.086 54.4001 132.934 54.2501 132.782 54.2001C132.63 54.1001 132.428 54.0501 132.226 54.0501C132.024 54.0501 131.821 54.1001 131.67 54.2001C131.518 54.3001 131.366 54.4001 131.265 54.5501C131.164 54.7001 131.063 54.9001 131.012 55.1001C130.962 55.3001 130.962 55.5501 130.962 55.8001Z" fill="white"/>
<path d="M134.704 53.4502H135.614L136.878 57.2502L138.142 53.4502H139.052L137.232 58.3002C137.131 58.5502 137.08 58.7502 136.979 58.9502C136.928 59.1502 136.827 59.3002 136.777 59.4002C136.726 59.5002 136.625 59.6502 136.575 59.7002C136.524 59.8002 136.423 59.8502 136.322 59.9002C136.221 59.9502 136.119 60.0002 136.018 60.0002C135.917 60.0002 135.765 60.0002 135.614 60.0002C135.513 60.0002 135.412 60.0002 135.361 60.0002C135.31 60.0002 135.26 60.0002 135.209 59.9502V59.2502C135.26 59.2502 135.31 59.3002 135.412 59.3002C135.513 59.3002 135.563 59.3502 135.664 59.3502C135.816 59.3502 135.917 59.3002 136.018 59.2502C136.119 59.2002 136.17 59.1002 136.221 58.9502L136.473 58.3002L134.704 53.4502Z" fill="white"/>
<path d="M143.401 56.5001C143.401 56.6001 143.35 56.7501 143.35 56.8501C143.3 57.0001 143.249 57.1001 143.199 57.2501C143.148 57.4001 143.047 57.5001 142.946 57.6501C142.845 57.7501 142.743 57.9001 142.592 57.9501C142.44 58.0501 142.288 58.1001 142.086 58.2001C141.884 58.2501 141.682 58.3001 141.429 58.3001C141.277 58.3001 141.125 58.3001 140.974 58.2501C140.822 58.2001 140.67 58.1501 140.519 58.1001C140.367 58.0001 140.215 57.9001 140.114 57.8001C139.962 57.7001 139.861 57.5001 139.76 57.3501C139.659 57.1501 139.608 56.9501 139.507 56.7001C139.457 56.4501 139.406 56.2001 139.406 55.8501C139.406 55.4501 139.457 55.1001 139.558 54.8001C139.659 54.5001 139.811 54.2501 140.013 54.0001C140.215 53.8001 140.417 53.6001 140.67 53.5001C140.923 53.4001 141.176 53.3501 141.429 53.3501C141.682 53.3501 141.884 53.4001 142.086 53.4501C142.288 53.5001 142.44 53.5501 142.592 53.6501C142.743 53.7501 142.845 53.8501 142.946 53.9501C143.047 54.0501 143.097 54.2001 143.199 54.3001C143.249 54.4501 143.3 54.5501 143.35 54.7001C143.401 54.8501 143.401 54.9501 143.401 55.0501H142.642C142.592 54.7501 142.491 54.5001 142.288 54.3001C142.086 54.1001 141.833 54.0501 141.53 54.0501C141.328 54.0501 141.125 54.1001 140.923 54.2001C140.771 54.3001 140.62 54.4001 140.519 54.6001C140.417 54.7501 140.316 54.9501 140.266 55.2001C140.215 55.4501 140.165 55.7001 140.165 55.9501C140.165 56.2501 140.215 56.5001 140.266 56.7501C140.316 56.9501 140.417 57.1501 140.519 57.3001C140.62 57.4501 140.771 57.5501 140.923 57.6001C141.075 57.6501 141.277 57.7001 141.479 57.7001C141.631 57.7001 141.732 57.7001 141.884 57.6001C141.985 57.5501 142.137 57.5001 142.238 57.4001C142.339 57.3001 142.44 57.2001 142.491 57.0501C142.541 56.9001 142.592 56.7501 142.642 56.5501H143.401V56.5001Z" fill="white"/>
<path d="M147.901 56.5001C147.901 56.6001 147.85 56.7501 147.85 56.8501C147.8 57.0001 147.749 57.1001 147.699 57.2501C147.648 57.4001 147.547 57.5001 147.446 57.6501C147.345 57.7501 147.244 57.9001 147.092 57.9501C146.94 58.0501 146.789 58.1001 146.586 58.2001C146.384 58.2501 146.182 58.3001 145.929 58.3001C145.777 58.3001 145.626 58.3001 145.474 58.2501C145.322 58.2001 145.171 58.1501 145.019 58.1001C144.867 58.0001 144.715 57.9001 144.614 57.8001C144.463 57.7001 144.362 57.5001 144.26 57.3501C144.159 57.1501 144.109 56.9501 144.008 56.7001C143.957 56.4501 143.906 56.2001 143.906 55.8501C143.906 55.4501 143.957 55.1001 144.058 54.8001C144.159 54.5001 144.311 54.2501 144.513 54.0001C144.715 53.8001 144.918 53.6001 145.171 53.5001C145.423 53.4001 145.676 53.3501 145.929 53.3501C146.182 53.3501 146.384 53.4001 146.586 53.4501C146.789 53.5001 146.94 53.5501 147.092 53.6501C147.244 53.7501 147.345 53.8501 147.446 53.9501C147.547 54.0501 147.598 54.2001 147.699 54.3001C147.749 54.4501 147.8 54.5501 147.85 54.7001C147.901 54.8501 147.901 54.9501 147.901 55.0501H147.143C147.092 54.7501 146.991 54.5001 146.789 54.3001C146.586 54.1001 146.334 54.0501 146.03 54.0501C145.828 54.0501 145.626 54.1001 145.423 54.2001C145.272 54.3001 145.12 54.4001 145.019 54.6001C144.918 54.7501 144.817 54.9501 144.766 55.2001C144.715 55.4501 144.665 55.7001 144.665 55.9501C144.665 56.2501 144.715 56.5001 144.766 56.7501C144.817 56.9501 144.918 57.1501 145.019 57.3001C145.12 57.4501 145.272 57.5501 145.423 57.6001C145.575 57.6501 145.777 57.7001 145.98 57.7001C146.131 57.7001 146.232 57.7001 146.384 57.6001C146.485 57.5501 146.637 57.5001 146.738 57.4001C146.839 57.3001 146.94 57.2001 146.991 57.0501C147.041 56.9001 147.092 56.7501 147.143 56.5501H147.901V56.5001Z" fill="white"/>
<path d="M148.659 53.4502H149.468V55.7002L151.845 53.4502H152.907L150.733 55.5002L152.957 58.1002H151.896L150.075 56.0002L149.468 56.5002V58.1002H148.659V53.4502Z" fill="white"/>
<path d="M157.71 55.8001C157.71 56.2001 157.66 56.5501 157.559 56.8501C157.458 57.1501 157.306 57.4001 157.104 57.6501C156.901 57.8501 156.699 58.0501 156.396 58.1501C156.143 58.2501 155.84 58.3001 155.486 58.3001C155.132 58.3001 154.828 58.2501 154.575 58.1501C154.323 58.0501 154.07 57.8501 153.868 57.6501C153.665 57.4501 153.514 57.2001 153.412 56.8501C153.311 56.5501 153.261 56.2001 153.261 55.8001C153.261 55.4001 153.311 55.1001 153.412 54.8001C153.514 54.5001 153.665 54.2501 153.868 54.0001C154.07 53.8001 154.272 53.6001 154.575 53.5001C154.828 53.4001 155.132 53.3501 155.486 53.3501C155.84 53.3501 156.143 53.4001 156.396 53.5001C156.649 53.6001 156.901 53.8001 157.104 54.0001C157.306 54.2001 157.458 54.4501 157.559 54.8001C157.66 55.0501 157.71 55.4001 157.71 55.8001ZM156.901 55.8001C156.901 55.5501 156.851 55.3001 156.8 55.1001C156.75 54.9001 156.649 54.7001 156.548 54.5501C156.446 54.4001 156.295 54.2501 156.092 54.2001C155.941 54.1001 155.738 54.0501 155.486 54.0501C155.283 54.0501 155.081 54.1001 154.879 54.2001C154.727 54.3001 154.575 54.4001 154.424 54.5501C154.323 54.7001 154.222 54.9001 154.171 55.1001C154.12 55.3001 154.07 55.5501 154.07 55.8001C154.07 56.0501 154.12 56.3001 154.171 56.5001C154.222 56.7001 154.323 56.9001 154.424 57.0501C154.525 57.2001 154.677 57.3501 154.879 57.4001C155.031 57.5001 155.233 57.5501 155.486 57.5501C155.688 57.5501 155.89 57.5001 156.092 57.4001C156.244 57.3001 156.396 57.2001 156.548 57.0501C156.649 56.9001 156.75 56.7001 156.8 56.5001C156.851 56.3001 156.901 56.0501 156.901 55.8001Z" fill="white"/>
<path d="M158.621 53.4501H159.43V57.0001L161.756 53.4501H162.666V58.1001H161.857V54.5501L159.531 58.1001H158.621V53.4501ZM159.885 51.6501C159.935 51.8501 159.986 52.0001 160.138 52.1001C160.239 52.2001 160.441 52.2501 160.694 52.2501C160.947 52.2501 161.098 52.2001 161.25 52.1001C161.351 52.0001 161.452 51.8501 161.503 51.6501H162.261C162.261 51.8001 162.211 52.0001 162.16 52.1001C162.11 52.2501 162.008 52.3501 161.857 52.4501C161.705 52.5501 161.553 52.6001 161.402 52.7001C161.199 52.7501 160.997 52.8001 160.795 52.8001C160.593 52.8001 160.34 52.7501 160.188 52.7001C159.986 52.6501 159.834 52.5501 159.733 52.4501C159.581 52.3501 159.48 52.2501 159.43 52.1001C159.379 51.9501 159.329 51.8001 159.329 51.6001H159.885V51.6501Z" fill="white"/>
<path d="M170.25 58.1002H166.61V59.2502H165.851V57.4002H166.458C166.61 57.1002 166.711 56.7502 166.761 56.4502C166.863 56.1002 166.913 55.8002 166.913 55.4502C166.964 55.1002 166.964 54.8002 167.014 54.4502C167.014 54.1002 167.014 53.8002 167.014 53.4502H170.301V57.4002H170.958V59.2502H170.2V58.1002H170.25ZM169.543 57.4002V54.1502H167.874C167.874 54.4002 167.823 54.7002 167.823 54.9502C167.823 55.2502 167.773 55.5002 167.722 55.8002C167.672 56.1002 167.621 56.3502 167.571 56.6502C167.52 56.9002 167.419 57.2002 167.318 57.4502H169.543V57.4002Z" fill="white"/>
<path d="M171.312 53.4502H172.222L173.487 57.2502L174.751 53.4502H175.661L173.841 58.3002C173.739 58.5502 173.689 58.7502 173.588 58.9502C173.537 59.1502 173.436 59.3002 173.385 59.4002C173.335 59.5502 173.234 59.6502 173.183 59.7002C173.133 59.8002 173.032 59.8502 172.93 59.9002C172.829 59.9502 172.728 60.0002 172.627 60.0002C172.526 60.0002 172.374 60.0002 172.222 60.0002C172.121 60.0002 172.02 60.0002 171.97 60.0002C171.919 60.0002 171.869 60.0002 171.818 59.9502V59.2502C171.869 59.2502 171.919 59.3002 172.02 59.3002C172.121 59.3002 172.172 59.3502 172.273 59.3502C172.425 59.3502 172.526 59.3002 172.627 59.2502C172.728 59.2002 172.779 59.1002 172.829 58.9502L173.082 58.3002L171.312 53.4502Z" fill="white"/>
<path d="M176.268 53.4502H177.077V57.4002H178.796V53.4502H179.605V57.4002H181.274V53.4502H182.083V58.1002H176.268V53.4502Z" fill="white"/>
<path d="M183.296 53.4502H184.105V57.0502L186.431 53.4502H187.341V58.1002H186.532V54.5502L184.206 58.1002H183.296V53.4502Z" fill="white"/>
<path d="M198.162 38.2502C198.162 34.6002 200.286 29.5002 201.954 26.3002C201.752 25.1002 199.527 24.8502 198.263 24.8502C197.909 26.1002 197.201 28.1502 196.139 30.1502C195.128 32.1002 193.611 34.3502 192.701 35.6502C190.931 38.0002 190.021 38.9002 189.313 39.3002C189.162 39.4002 189.01 39.3002 188.909 39.1502C188.858 39.0502 188.808 38.9002 188.808 38.7502C188.808 37.5502 189.819 34.3502 190.274 33.3002C192.398 28.3502 193.156 26.7502 193.257 25.2002C192.752 23.8002 190.173 23.7002 189.313 23.7002C189.313 25.3002 186.128 32.5002 185.268 36.0002C185.066 36.9502 185.015 37.3002 184.965 38.5002C184.965 38.6002 184.965 38.7502 185.015 38.8502C185.47 40.4002 187.24 41.5002 188.808 41.4002C189.111 41.3502 189.718 40.9502 190.325 40.3002C191.083 39.4002 193.965 35.8002 194.37 35.8502C194.269 36.1502 194.218 36.9002 194.218 37.4002C194.218 38.2002 194.471 39.8002 195.33 40.5502C196.342 41.3502 197.454 41.6002 198.668 41.3002C198.668 41.3002 199.426 41.1002 199.325 41.0502C198.921 40.7002 198.162 40.2002 198.162 38.2502Z" fill="white"/>
<path d="M145.878 38.2502C145.878 34.6002 148.002 29.5002 149.671 26.3002C149.468 25.1002 147.244 24.8502 145.98 24.8502C145.626 26.1002 144.918 28.1502 143.856 30.1502C142.845 32.1002 141.328 34.3502 140.417 35.6502C138.648 38.0002 137.738 38.9002 137.03 39.3002C136.878 39.4002 136.726 39.3002 136.625 39.1502C136.575 39.0502 136.524 38.9002 136.524 38.7502C136.524 37.5502 137.535 34.3502 137.99 33.3002C140.114 28.3502 140.873 26.7502 140.974 25.2002C140.468 23.8002 137.889 23.7002 137.03 23.7002C137.03 25.3002 133.844 32.5002 132.984 36.0002C132.782 36.9502 132.732 37.3002 132.681 38.5002C132.681 38.6002 132.681 38.7502 132.732 38.8502C133.187 40.4002 134.956 41.5002 136.524 41.4002C136.827 41.3502 137.434 40.9502 138.041 40.3002C138.799 39.4002 141.682 35.8002 142.086 35.8502C141.985 36.1502 141.934 36.9002 141.934 37.4002C141.934 38.2002 142.187 39.8002 143.047 40.5502C144.058 41.3502 145.171 41.6002 146.384 41.3002C146.384 41.3002 147.143 41.1002 147.041 41.0502C146.687 40.7002 145.878 40.2002 145.878 38.2502Z" fill="white"/>
<path d="M187.442 44.2C186.027 44.2 184.56 43.3 183.043 41.55L180.414 38.4L177.38 34.8C176.622 33.9 175.61 33.05 173.841 32.95C176.52 29.35 179.605 26.8 180.97 26.75C181.122 26.75 181.172 26.85 181.172 26.9C181.172 27.7 180.92 28.45 180.414 29.55C180.161 30.1 180.313 30.65 180.616 30.95C181.071 31.4 181.779 31.6 182.538 31.65H182.639L182.689 31.55C183.296 30.45 183.65 29.05 183.65 28.05C183.65 27.55 183.65 27.2 183.549 26.6C183.296 25.6 182.892 24.9 181.981 24.85C180.515 24.9 178.745 25.8 177.026 27.4C175.509 28.75 173.992 30.65 172.526 32.9H172.475C173.385 30.35 174.548 28.15 175.054 25.75C175.459 24.75 173.942 24.2 173.234 23.9C172.779 23.7 172.02 23.55 171.565 23.6C171.616 23.8 171.262 25.15 171.059 25.75C168.986 31.3 168.278 34.85 167.975 37.6C167.823 39.05 167.773 40.25 168.278 40.9C168.986 41.75 170.453 42 171.161 42.05C171.11 41.85 171.059 41.5 171.059 41.25C171.11 39.1 171.666 36.35 172.779 34.5C172.829 34.4 172.93 34.3 172.981 34.2C173.79 34.2 174.599 35.3 174.902 35.8C175.155 36.25 175.661 37 176.318 38C176.318 38 178.695 42.05 179.15 42.6C180.11 43.85 181.021 44.7 181.88 45.2C182.74 45.7 184.105 45.95 185.369 45.95C186.178 45.95 186.937 45.75 187.543 45.35C188.15 44.95 188.555 44.5 188.757 43.95L188.808 43.75L188.605 43.85C188.352 44.1 187.948 44.2 187.442 44.2Z" fill="white"/>
<path d="M129.799 39.6498C129.546 38.7498 129.243 36.0498 130.052 32.5998C130.203 31.9498 131.518 26.3998 131.316 25.7998C130.81 24.4998 129.445 24.0498 127.17 24.4498H127.068V24.5498C127.271 25.2998 127.17 28.0498 126.917 29.1498C126.917 29.1998 126.917 29.1998 126.917 29.2498C126.866 29.3998 126.816 29.5498 126.765 29.6998C126.462 30.3498 126.158 30.9498 125.905 31.3998C124.844 33.4998 123.276 35.9998 122.063 37.6998C120.647 39.6498 119.989 39.8498 119.737 39.9498C119.737 39.7998 119.787 39.5998 119.989 39.1998L120.697 37.3998C121.001 36.6998 120.849 36.0998 120.647 35.8498C119.888 34.8998 118.877 34.4998 117.714 34.6998C117.663 34.6998 117.613 34.7498 117.562 34.7998C117.512 34.9998 117.461 35.2498 117.411 35.4498C116.854 37.6498 116.753 39.0998 117.158 39.9998C117.259 40.2498 117.411 40.4998 117.562 40.6998C117.714 40.9498 117.916 41.0998 118.22 41.2498L118.27 41.2998C118.624 41.4998 119.079 41.5998 119.484 41.5998C119.585 41.5998 119.737 41.5998 119.838 41.5998C120.647 41.4998 121.607 40.6498 122.72 39.0498C123.175 38.4498 123.579 37.8498 123.933 37.2498C124.54 36.3998 125.096 35.5498 125.551 34.6998C126.007 33.8498 126.462 33.0498 126.917 32.2498C126.057 35.7498 126.057 38.5998 126.563 39.8998C126.866 40.6998 127.372 41.2998 128.13 41.6998C128.636 41.9498 129.142 42.0498 129.698 42.0498C130.001 42.0498 130.305 41.9998 130.608 41.9498C130.861 41.8998 131.619 41.6998 132.024 41.1498L132.125 40.9998H131.923C131.821 41.0498 130.203 40.9998 129.799 39.6498Z" fill="white"/>
<path d="M214.949 25.8999C214.494 24.6499 212.977 24.0499 211.916 23.8999C207.264 23.8999 201.954 30.6499 201.954 36.3499C201.954 39.1499 203.825 41.8499 207.112 41.6999C209.387 41.5999 211.663 39.6499 212.927 37.8999C213.786 36.6499 213.736 36.0499 213.736 35.7499C213.685 35.7999 213.635 35.7999 213.584 35.8499C212.118 37.3999 209.691 40.2999 207.112 39.9499C205.797 39.7499 205.494 38.3499 205.494 37.1499C205.494 36.8499 205.544 36.4999 205.544 36.2499C211.562 33.8999 215.556 29.9999 214.949 25.8999ZM212.522 27.0499C212.371 30.1999 209.539 33.0999 205.797 34.9499C206.96 30.6499 209.944 27.3999 212.522 27.0499Z" fill="white"/>
<path d="M104.314 25.5C103.556 25.15 102.241 24.85 101.281 24.9C99.6625 27.8 98.5501 30.45 97.1848 33.05C97.286 34.05 97.1343 35.1 96.7803 36.05C97.0837 35.6 97.3365 35.2 97.4882 34.95C95.314 45.3 91.2182 52.1 85.7573 51.95C84.0381 51.9 83.3302 51.1 83.3302 51.1C83.3302 51.1 83.1785 54.05 87.7293 53.95C90.0552 53.9 92.634 52.35 94.7072 49.95C97.9939 46.2 99.258 42.25 101.078 35.25C101.887 32.3 103.253 28.9 104.618 26.4C104.719 26 104.618 25.65 104.314 25.5Z" fill="white"/>
<path d="M114.478 23.7002C116.956 23.7002 118.371 25.0002 118.371 27.2502C118.371 29.4002 117.613 31.7502 116.197 31.5002C115.641 31.4002 114.427 31.1502 114.023 30.6002C115.641 29.1502 116.45 27.8502 116.45 26.6502C116.45 25.9502 116.147 25.6002 115.641 25.6002C114.731 25.6002 113.113 26.6002 111.747 28.0502C109.725 30.3002 108.562 33.1502 108.562 36.2002C108.562 38.1002 109.017 39.2502 109.877 39.6502C112.506 40.5502 115.944 37.2502 115.944 37.4502C114.781 40.4002 112.405 41.7002 110.332 41.6002C107.146 41.3002 104.719 38.6002 104.972 34.9002C105.275 29.4002 109.421 23.7002 114.478 23.7002Z" fill="white"/>
<path d="M89.5496 18.6499C88.0326 20.6999 87.0214 25.6999 86.1112 28.85C83.6841 36.65 82.5211 37.95 79.5378 40.15C78.6782 40.75 77.1107 41.5 75.9983 41.6C73.015 41.55 72.0543 40 71.9532 37.9C71.9026 36.9 72.1554 34.9499 73.5712 33.8499C74.5319 33.5999 75.8466 34.15 76.5545 35.2C75.2398 36.25 74.6331 37.85 74.4814 38.9C74.3803 39.55 74.2791 40.35 74.8353 40.45C76.4534 40.45 78.3748 38.95 80.1446 35.45C82.9256 29.5 83.0773 24.7999 84.2909 20.4999C84.8471 18.5999 85.0999 17.9499 85.4539 17.8499C85.8584 17.5999 88.4877 17.6999 89.5496 18.6499Z" fill="white"/>
<path d="M103.505 14.1498C103.303 14.9998 102.545 15.8498 101.179 16.5998C99.8142 17.3998 98.1456 17.7498 96.2242 17.6998C94.2016 17.6498 91.9262 17.3498 89.3474 16.8998C86.7686 16.3998 84.4932 16.1498 82.4201 16.0998C80.0435 16.0498 78.2232 16.5498 76.858 17.6998C75.5433 18.8498 74.6837 20.3998 74.2792 22.4498C73.2679 22.2998 72.5094 21.9498 72.0038 21.3998C71.4982 20.8498 71.2959 20.1498 71.2959 19.3498C71.3465 17.1998 72.4589 15.5998 74.5826 14.4998C76.7063 13.3998 79.0323 12.8998 81.5605 12.9998C84.0381 13.0498 86.9203 13.5498 90.2576 14.3998C93.5948 15.2498 96.123 15.6998 97.8928 15.7498C100.269 15.7998 102.14 15.2998 103.505 14.1498Z" fill="white"/>
<path d="M98.8029 31.8C99.0557 30.85 99.258 29.9 99.4097 28.95C99.4602 28.8 99.4602 28.7 99.4602 28.6C99.4602 28.55 99.4602 28.55 99.4602 28.5C99.4602 28.45 99.4602 28.4 99.4602 28.35C99.2074 28.95 98.904 29.55 98.6006 30.2C97.5894 32.15 96.0724 34.4 95.1623 35.7C93.3925 38.05 92.4824 38.95 91.7744 39.35C91.6228 39.45 91.4711 39.35 91.3699 39.2C91.3194 39.1 91.2688 38.95 91.2688 38.8C91.2688 37.6 92.2801 34.4 92.7352 33.35C94.8589 28.4 95.6173 26.8 95.7185 25.25C95.2128 23.85 92.634 23.75 91.7744 23.75C91.7744 25.35 88.5889 32.55 87.7293 36.05C87.527 37 87.4765 37.35 87.4259 38.55C87.4259 38.65 87.4259 38.8 87.4765 38.9C87.9316 40.45 89.7013 41.55 91.2688 41.45C91.5722 41.4 92.179 41 92.7857 40.35C93.3925 39.6 96.5781 35.9 97.5388 35C97.8422 33.3 97.3871 32.8 98.8029 31.8Z" fill="white"/>
<path d="M159.278 45.5502C159.682 46.1502 160.593 46.5502 161.958 46.6502C162.817 46.7002 164.79 46.8502 165.851 45.1002C166.205 44.5502 166.357 44.0002 166.155 43.1502C166.003 42.5002 165.599 42.0002 165.396 41.4002C165.194 40.8002 165.245 40.3502 165.396 39.9002C165.548 39.5002 165.851 39.1002 166.408 38.7502L165.902 38.6502C165.396 38.5502 164.891 38.7502 164.537 39.1502C164.334 39.4002 164.082 39.6002 163.778 39.8002C163.627 39.9002 163.424 40.0502 163.222 40.1002C162.868 40.1502 162.666 39.3502 162.666 38.2002C162.666 34.6002 164.688 29.6002 166.408 26.4002C166.458 26.3002 166.509 26.1502 166.458 26.0502C166.054 25.0002 164.031 24.8002 162.817 24.8002C162.464 26.0502 161.756 28.1002 160.694 30.1002C159.682 32.0502 158.166 34.3002 157.255 35.6002C155.486 37.9502 154.575 38.8502 153.868 39.2502C153.716 39.3502 153.564 39.2502 153.463 39.1002C153.412 39.0002 153.362 38.8502 153.362 38.7002C153.362 37.5002 154.373 34.3002 154.828 33.2502C156.901 28.4502 157.66 26.8002 157.812 25.3002C157.812 25.2002 157.812 25.1002 157.761 25.0502C157.154 23.8002 154.677 23.7002 153.918 23.7002C153.918 25.3002 150.733 32.5002 149.873 36.0002C149.671 36.9002 149.62 37.3002 149.57 38.4002C149.57 38.5502 149.57 38.7502 149.62 38.9002C150.126 40.4002 151.845 41.5002 153.412 41.3502C153.716 41.3002 154.323 40.9002 154.929 40.2502C155.688 39.3502 158.57 35.7502 158.975 35.8002C158.873 36.1002 158.823 36.8502 158.823 37.3502C158.823 38.1502 159.076 39.7502 159.935 40.5002C160.795 41.1502 161.25 41.4002 162.362 41.4002C162.767 41.4002 163.171 41.3502 163.475 41.2002C163.728 41.1002 163.93 40.9502 164.132 40.8502C164.082 41.5002 164.183 42.1502 164.031 42.7502C163.98 43.0502 163.879 43.4002 163.728 43.7502C162.868 45.6502 160.795 45.8502 159.278 45.5502Z" fill="white"/>
</g>
<defs>
<clipPath id="clip0_155_169">
<rect width="215" height="60" fill="white"/>
</clipPath>
</defs>
</svg>
