<svg width="32" height="28" viewBox="0 0 32 28" fill="none" xmlns="http://www.w3.org/2000/svg">
<path d="M14.8616 5.4402L15.9987 7.94746L17.138 5.44116C18.2634 2.96529 20.7498 1.25 23.6283 1.25C27.5537 1.25 30.75 4.44958 30.75 8.3771C30.75 9.22817 30.603 10.0428 30.3347 10.7898C29.9727 11.7783 29.3999 12.668 28.6703 13.403C28.6694 13.4039 28.6685 13.4048 28.6676 13.4058L16.0215 25.9695L3.84385 13.8741L3.80303 13.8335L3.75867 13.7969C3.48046 13.5673 3.21906 13.3068 2.97574 13.0221L2.97558 13.0219C2.40373 12.3532 1.94994 11.5817 1.65294 10.7412C1.39189 9.99904 1.25 9.20745 1.25 8.3771C1.25 4.44471 4.44576 1.25 8.37172 1.25C11.2504 1.25 13.7416 2.97077 14.8616 5.4402ZM16.6199 26.5639L16.6169 26.5609C16.6179 26.5619 16.6189 26.5629 16.6199 26.5639Z" stroke="white" stroke-width="2.5"/>
</svg>
