<svg width="52" height="76" viewBox="0 0 52 76" fill="none" xmlns="http://www.w3.org/2000/svg">
<path d="M5.51388 75.3186C5.35683 75.0765 5.16987 74.8165 4.95299 74.5388C4.74359 74.2539 4.51176 73.9726 4.25748 73.6948C4.01069 73.41 3.75268 73.1393 3.48345 72.883C3.21422 72.6195 2.945 72.388 2.67577 72.1886V75.3186H0.925781V67.9155H2.67577V70.7144C3.13196 70.2586 3.58815 69.785 4.04434 69.2936C4.50802 68.7951 4.93803 68.3357 5.3344 67.9155H7.4097C6.87872 68.5138 6.34401 69.0906 5.80555 69.6461C5.27457 70.2016 4.71368 70.7607 4.12287 71.3233C4.74359 71.8147 5.34188 72.3987 5.91773 73.0753C6.50106 73.7518 7.05821 74.4996 7.58919 75.3186H5.51388Z" fill="white"/>
<path d="M14.0841 75.3186C14.0019 75.0622 13.9084 74.7987 13.8037 74.5281C13.7065 74.2575 13.6093 73.9868 13.512 73.7162H10.4832C10.386 73.9868 10.285 74.2575 10.1803 74.5281C10.0831 74.7987 9.99337 75.0622 9.91111 75.3186H8.09382C8.38548 74.521 8.66219 73.7839 8.92394 73.1073C9.18569 72.4307 9.43996 71.7933 9.68675 71.1951C9.94102 70.5969 10.1878 70.0307 10.4271 69.4966C10.6739 68.9553 10.9282 68.4283 11.1899 67.9155H12.8614C13.1157 68.4283 13.3662 68.9553 13.613 69.4966C13.8598 70.0307 14.1066 70.5969 14.3534 71.1951C14.6076 71.7933 14.8657 72.4307 15.1274 73.1073C15.3892 73.7839 15.6659 74.521 15.9575 75.3186H14.0841ZM11.9864 69.5927C11.949 69.6995 11.8929 69.8455 11.8181 70.0307C11.7434 70.2159 11.6574 70.4295 11.5601 70.6717C11.4629 70.9138 11.3545 71.1809 11.2348 71.4729C11.1226 71.7648 11.0067 72.0711 10.8871 72.3916H13.097C12.9773 72.0711 12.8614 71.7648 12.7492 71.4729C12.637 71.1809 12.5286 70.9138 12.4239 70.6717C12.3267 70.4295 12.2407 70.2159 12.1659 70.0307C12.0911 69.8455 12.0313 69.6995 11.9864 69.5927Z" fill="white"/>
<path d="M19.2971 67.8301C20.4563 67.8301 21.3463 68.0259 21.967 68.4176C22.5877 68.8022 22.8981 69.436 22.8981 70.3191C22.8981 71.2094 22.584 71.8539 21.9558 72.2527C21.3276 72.6444 20.4301 72.8402 19.2635 72.8402H18.7138V75.3186H16.9638V68.0224C17.3452 67.9511 17.7491 67.9013 18.1753 67.8728C18.6016 67.8443 18.9755 67.8301 19.2971 67.8301ZM19.4093 69.2509C19.2822 69.2509 19.155 69.2544 19.0279 69.2616C18.9082 69.2687 18.8035 69.2758 18.7138 69.2829V71.4194H19.2635C19.8692 71.4194 20.3254 71.3411 20.632 71.1844C20.9387 71.0277 21.092 70.7358 21.092 70.3084C21.092 70.1019 21.0508 69.931 20.9686 69.7957C20.8938 69.6604 20.7816 69.5535 20.632 69.4752C20.49 69.3897 20.3142 69.3328 20.1048 69.3043C19.8954 69.2687 19.6636 69.2509 19.4093 69.2509Z" fill="white"/>
<path d="M30.1734 72.8936C30.1734 73.7198 29.8519 74.3465 29.2087 74.7738C28.5656 75.2011 27.6681 75.4147 26.5164 75.4147C26.1948 75.4147 25.8247 75.3934 25.4059 75.3507C24.9945 75.3079 24.587 75.2403 24.1831 75.1477V67.9155H25.9331V70.3725C26.0303 70.3654 26.1163 70.3619 26.1911 70.3619C26.2734 70.3619 26.3556 70.3619 26.4379 70.3619C27.7018 70.3619 28.6403 70.5684 29.2536 70.9815C29.8668 71.3945 30.1734 72.0319 30.1734 72.8936ZM26.2808 71.772C26.2435 71.772 26.1911 71.772 26.1238 71.772C26.0565 71.772 25.9929 71.7755 25.9331 71.7827V73.994C26.0154 74.0011 26.1088 74.0046 26.2135 74.0046C26.3182 74.0046 26.4454 74.0046 26.5949 74.0046C26.8268 74.0046 27.0511 73.9868 27.268 73.9512C27.4849 73.9156 27.6756 73.8551 27.8401 73.7696C28.0047 73.6842 28.1355 73.5702 28.2328 73.4278C28.33 73.2853 28.3786 73.1073 28.3786 72.8936C28.3786 72.6729 28.33 72.4913 28.2328 72.3488C28.1355 72.2064 27.9934 72.0924 27.8065 72.007C27.627 71.9215 27.4064 71.861 27.1446 71.8254C26.8904 71.7898 26.6024 71.772 26.2808 71.772Z" fill="white"/>
<path d="M31.5777 75.3186V67.9155H36.8277V69.315H33.3277V70.7678H36.435V72.1352H33.3277V73.9192H37.0857V75.3186H31.5777Z" fill="white"/>
<path d="M40.714 67.8301C41.8732 67.8301 42.7632 68.0259 43.3839 68.4176C44.0046 68.8022 44.315 69.436 44.315 70.3191C44.315 71.2094 44.0009 71.8539 43.3727 72.2527C42.7445 72.6444 41.847 72.8402 40.6804 72.8402H40.1307V75.3186H38.3807V68.0224C38.7621 67.9511 39.166 67.9013 39.5922 67.8728C40.0185 67.8443 40.3924 67.8301 40.714 67.8301ZM40.8262 69.2509C40.6991 69.2509 40.5719 69.2544 40.4448 69.2616C40.3251 69.2687 40.2204 69.2758 40.1307 69.2829V71.4194H40.6804C41.2861 71.4194 41.7423 71.3411 42.0489 71.1844C42.3556 71.0277 42.5089 70.7358 42.5089 70.3084C42.5089 70.1019 42.4677 69.931 42.3855 69.7957C42.3107 69.6604 42.1985 69.5535 42.0489 69.4752C41.9069 69.3897 41.7311 69.3328 41.5217 69.3043C41.3123 69.2687 41.0805 69.2509 40.8262 69.2509Z" fill="white"/>
<path d="M50.0383 75.3186C49.956 75.0622 49.8625 74.7987 49.7578 74.5281C49.6606 74.2575 49.5634 73.9868 49.4661 73.7162H46.4373C46.3401 73.9868 46.2391 74.2575 46.1344 74.5281C46.0372 74.7987 45.9475 75.0622 45.8652 75.3186H44.0479C44.3396 74.521 44.6163 73.7839 44.878 73.1073C45.1398 72.4307 45.3941 71.7933 45.6409 71.1951C45.8951 70.5969 46.1419 70.0307 46.3812 69.4966C46.628 68.9553 46.8823 68.4283 47.144 67.9155H48.8155C49.0698 68.4283 49.3203 68.9553 49.5671 69.4966C49.8139 70.0307 50.0607 70.5969 50.3075 71.1951C50.5618 71.7933 50.8198 72.4307 51.0815 73.1073C51.3433 73.7839 51.62 74.521 51.9116 75.3186H50.0383ZM47.9405 69.5927C47.9031 69.6995 47.847 69.8455 47.7722 70.0307C47.6975 70.2159 47.6115 70.4295 47.5142 70.6717C47.417 70.9138 47.3086 71.1809 47.1889 71.4729C47.0767 71.7648 46.9608 72.0711 46.8412 72.3916H49.0511C48.9314 72.0711 48.8155 71.7648 48.7033 71.4729C48.5911 71.1809 48.4827 70.9138 48.378 70.6717C48.2808 70.4295 48.1948 70.2159 48.12 70.0307C48.0452 69.8455 47.9854 69.6995 47.9405 69.5927Z" fill="white"/>
<path d="M27.7163 59.3096C38.3654 59.3096 48.4636 50.7467 51.2439 35.8991C52.8439 27.31 51.9783 18.2234 47.939 9.86997C47.2833 8.50828 46.4178 8.58684 45.0801 9.39862C41.8014 11.3626 34.8769 15.2643 27.4278 14.1645C22.6541 13.4575 15.6771 11.3626 10.3001 1.22851C9.85423 0.390553 8.72637 -0.918759 7.36245 0.96665C2.16907 8.0893 -1.73908 25.3984 3.19201 39.9841C7.20508 51.8989 17.4082 59.3096 27.7163 59.3096ZM10.1165 13.7979C20.923 25.9221 36.5031 23.1202 43.7424 19.0875C48.7522 37.5226 40.3326 54.0461 27.9786 54.0461C10.5886 54.0461 5.08051 32.1544 10.1165 13.7979Z" fill="white"/>
</svg>
