<svg width="215" height="48" viewBox="0 0 215 48" fill="none" xmlns="http://www.w3.org/2000/svg">
<path d="M21.5837 48.0001C13.2826 48.0001 5.06444 42.0001 1.82699 32.3751C-2.11606 20.5834 0.996871 6.54175 5.18896 0.791748C6.30961 -0.749919 7.22274 0.333415 7.55479 1.00008C11.8714 9.20842 17.5162 10.8751 21.3347 11.4584C27.3115 12.3751 32.9148 9.20842 35.5297 7.58342C36.6088 6.91675 37.3144 6.87508 37.8125 7.95842C41.05 14.7501 41.7556 22.0834 40.4689 29.0417C38.2691 41.0834 30.1339 48.0001 21.5837 48.0001ZM7.38876 11.1667C3.3627 26.0001 7.80382 43.7501 21.7913 43.7501C31.7112 43.7501 38.5181 30.3751 34.492 15.4584C28.6397 18.7084 16.105 20.9584 7.38876 11.1667ZM66.327 29.7918C68.7343 28.0418 71.0171 25.0001 71.0171 19.6251C71.0171 19.1668 70.6436 18.7501 70.1455 18.7501H66.0365C65.5799 18.7501 65.2063 19.1251 65.1648 19.6251C64.5837 27.1668 62.3424 27.7084 57.8598 27.7501V19.6251C57.8598 19.1668 57.4863 18.7501 56.9882 18.7501H52.9621C52.5056 18.7501 52.0905 19.1251 52.0905 19.6251V39.9584C52.0905 40.4168 52.4641 40.8334 52.9621 40.8334H56.9882C57.4448 40.8334 57.8598 40.4584 57.8598 39.9584V31.8334C63.2971 31.7084 64.3762 35.2084 65.3724 40.0001C65.4554 40.4584 65.6629 40.8334 66.244 40.8334H70.3531C70.8096 40.8334 71.2247 40.4584 71.2247 39.9584C71.2247 35.1251 68.5268 31.2918 66.327 29.7918ZM114.889 19.6251C114.889 19.1668 114.515 18.7501 114.017 18.7501C114.017 18.7501 108.87 18.8334 105.342 18.8334C101.814 18.8334 96.6677 18.7501 96.6677 18.7501C96.2112 18.7501 95.7961 19.1251 95.7961 19.6251V23.1251C95.7961 23.5834 96.1697 24.0001 96.6677 24.0001C96.6677 24.0001 99.5316 23.9584 102.479 23.9168V40.0001C102.479 40.4584 102.852 40.8751 103.35 40.8751H107.376C107.833 40.8751 108.248 40.5001 108.248 40.0001V23.8751C111.195 23.9168 114.059 23.9584 114.059 23.9584C114.515 23.9584 114.93 23.5834 114.93 23.0834V19.6251H114.889ZM214.171 18.7501H210.145C209.688 18.7501 209.273 19.1251 209.273 19.6251V30.4168C209.273 34.6251 205.662 37.3334 203.172 36.2918C201.636 35.6668 200.225 34.0001 200.225 31.3751V19.6251C200.225 19.1668 199.851 18.7501 199.353 18.7501H195.327C194.87 18.7501 194.455 19.1251 194.455 19.6251C194.455 19.6251 194.455 26.9167 194.455 32.1667C194.455 37.4168 197.859 41.2501 203.379 41.2501C206.866 41.2501 208.899 39.0834 209.314 38.2918C209.314 38.2918 209.314 39.4584 209.356 40.0001C209.356 40.5001 209.73 40.8751 210.228 40.8751H214.212C214.669 40.8751 215.084 40.5001 215.084 40.0001V19.6251C215.001 19.1668 214.627 18.7501 214.171 18.7501ZM211.141 14.8334C211.846 13.8334 211.058 13.0834 210.186 13.2501C205.413 14.2917 202.715 12.8334 199.27 9.91675C198.896 9.62508 198.357 9.62508 198.066 10.0001L196.282 12.0417C195.95 12.4167 195.991 12.9584 196.365 13.2501C203.67 19.9584 210.145 16.2501 211.141 14.8334ZM84.465 18.3334C78.1976 18.3334 73.0509 23.5001 73.0509 29.7918C73.0509 36.0834 78.1561 41.2501 84.465 41.2501C90.7324 41.2501 95.8791 36.1251 95.8791 29.7918C95.8791 23.5001 90.7324 18.3334 84.465 18.3334ZM84.465 36.8334C81.4351 36.8334 78.9447 34.4584 78.9447 29.7918C78.9447 25.1251 81.3936 22.7501 84.465 22.7501C87.4949 22.7501 89.9853 25.1251 89.9853 29.7918C89.9853 34.4584 87.4949 36.8334 84.465 36.8334ZM126.22 18.3334C119.952 18.3334 114.806 23.4584 114.806 29.7918C114.806 36.0834 119.911 41.2501 126.22 41.2501C132.487 41.2501 137.634 36.1251 137.634 29.7918C137.592 23.5001 132.487 18.3334 126.22 18.3334ZM126.22 36.8334C123.19 36.8334 120.7 34.4584 120.7 29.7918C120.7 25.1251 123.148 22.7501 126.22 22.7501C129.25 22.7501 131.74 25.1251 131.74 29.7918C131.74 34.4584 129.25 36.8334 126.22 36.8334ZM156.104 18.3751C156.187 15.0418 156.229 12.7918 156.229 12.7918C156.229 12.3334 155.855 11.9167 155.357 11.9167H151.331C150.874 11.9167 150.459 12.2917 150.459 12.7918C150.459 12.7918 150.542 15.0418 150.584 18.3751C144.607 18.7501 139.875 23.7084 139.875 29.7918C139.875 35.8751 144.607 40.8334 150.584 41.2084C150.501 44.3751 150.459 46.5001 150.459 46.5001C150.459 46.9584 150.833 47.3751 151.331 47.3751H155.357C155.813 47.3751 156.229 47.0001 156.229 46.5001C156.229 46.5001 156.146 44.3751 156.104 41.2084C162.081 40.8334 166.813 35.8751 166.813 29.7918C166.813 23.7084 162.081 18.7501 156.104 18.3751ZM150.708 36.7918C147.969 36.5001 145.852 34.1251 145.852 29.7918C145.852 25.4584 147.969 23.0834 150.75 22.7918C150.791 24.9584 150.791 27.3334 150.791 29.6667C150.75 32.1251 150.708 34.5418 150.708 36.7918ZM156.063 36.7918C156.021 34.5418 156.021 32.0834 156.021 29.6667C156.021 27.3334 156.021 24.9584 156.063 22.7918C158.802 23.0834 160.96 25.4584 160.96 29.7918C160.919 34.1251 158.802 36.5001 156.063 36.7918ZM180.509 18.3334C174.242 18.3334 169.095 23.4584 169.095 29.7918C169.095 36.0834 174.118 41.2501 180.758 41.2501C185.241 41.2501 188.063 39.5834 190.097 36.8751C190.388 36.5001 190.346 35.9584 190.014 35.6668L187.773 33.7084C187.441 33.4168 186.943 33.5001 186.611 33.8334C184.992 35.5418 183.041 37.0418 180.468 36.8334C178.019 36.6668 175.902 35.2501 175.197 32.1667H190.512C190.969 32.1667 191.342 31.7918 191.425 31.2918C191.508 30.7918 191.508 30.2918 191.508 29.7918C191.591 23.5001 186.818 18.3334 180.509 18.3334ZM175.197 27.8334C175.778 24.4584 177.978 22.7501 180.551 22.7501C183.124 22.7501 185.283 24.4584 185.905 27.8334H175.197Z" fill="white"/>
</svg>
