<svg width="25" height="25" viewBox="0 0 25 25" fill="none" xmlns="http://www.w3.org/2000/svg">
<path d="M18.1446 15.9901L18.018 16.163L18.1696 16.3145L23.7185 21.8634C24.231 22.3759 24.231 23.2068 23.7185 23.7193C23.206 24.2318 22.3751 24.2318 21.8626 23.7193L16.3138 18.1705L16.1622 18.0189L15.9893 18.1456C14.3499 19.3461 12.3374 20.0634 10.1562 20.0634C4.69435 20.0634 0.25 15.6191 0.25 10.1572C0.25 4.69532 4.6943 0.250977 10.1562 0.250977C15.6181 0.250977 20.0624 4.69532 20.0624 10.1572C20.0624 12.3384 19.3452 14.3506 18.1446 15.9901ZM2.87501 10.1572C2.87501 14.1725 6.1409 17.4384 10.1562 17.4384C14.1715 17.4384 17.4374 14.1725 17.4374 10.1572C17.4374 6.14188 14.1716 2.87599 10.1562 2.87599C6.1409 2.87599 2.87501 6.14188 2.87501 10.1572Z" fill="white" stroke="white" stroke-width="0.5"/>
</svg>
